<svg xmlns="http://www.w3.org/2000/svg" version="1.1" xmlns:xlink="http://www.w3.org/1999/xlink" xmlns:svgjs="http://svgjs.dev/svgjs" width="1500" height="1518" viewBox="0 0 1500 1518"><g transform="matrix(1,0,0,1,1.325901639344238,0.6145748987853494)"><svg viewBox="0 0 244 247" data-background-color="#f2dbc2" preserveAspectRatio="xMidYMid meet" height="1518" width="1500" xmlns="http://www.w3.org/2000/svg" xmlns:xlink="http://www.w3.org/1999/xlink"><g id="tight-bounds" transform="matrix(1,0,0,1,-0.21567999999999188,-0.09999999999999432)"><svg viewBox="0 0 244.43135999999998 247.2" height="247.2" width="244.43135999999998"><g><svg></svg></g><g><svg viewBox="0 0 244.43135999999998 247.2" height="247.2" width="244.43135999999998"><g transform="matrix(1,0,0,1,0,51.002970960915334)"><svg viewBox="0 0 244.43135999999998 145.19405807816932" height="145.19405807816932" width="244.43135999999998"><g><svg viewBox="0 0 244.43135999999998 145.19405807816932" height="145.19405807816932" width="244.43135999999998"><g transform="matrix(1,0,0,1,0,94.20337375058966)"><svg viewBox="0 0 244.43135999999998 50.990684327579665" height="50.990684327579665" width="244.43135999999998"><g id="textblocktransform"><svg viewBox="0 0 244.43135999999998 50.990684327579665" height="50.990684327579665" width="244.43135999999998" id="textblock"><g><svg viewBox="0 0 244.43135999999998 40.255040427531874" height="40.255040427531874" width="244.43135999999998"><g transform="matrix(1,0,0,1,0,0)"><svg width="244.43135999999998" viewBox="-1.3704499999999946 -35.868249999999996 278.52267 45.869479999999996" height="40.255040427531874" data-palette-color="#473829"><path d="M2.719-23.245l4.559 31.905-3.924 0.955 0.055 0.386 23.759-3.394-0.303-10.746-0.597-0.005-2.113 8.757c-0.189 0.754-0.444 1.276-0.766 1.564-0.315 0.294-0.862 0.497-1.641 0.608v0l-10.711 1.53-4.585-32.094 4.162-0.988-0.056-0.386-11.928 1.704 0.055 0.386zM29.293-22.165c-0.082-0.682 0.069-1.267 0.454-1.757 0.391-0.49 0.924-0.776 1.599-0.857v0c0.682-0.082 1.267 0.069 1.757 0.454 0.496 0.384 0.785 0.916 0.866 1.599v0c0.082 0.682-0.073 1.268-0.464 1.757-0.384 0.489-0.918 0.775-1.599 0.857v0c-0.675 0.081-1.261-0.07-1.756-0.454-0.489-0.384-0.775-0.918-0.857-1.599zM36.764 4.666l-2.441-20.334-0.397 0.047-5.412 2.574 0.042 0.347 2.997 0.718 2.043 17.028-2.922 0.743 0.047 0.388 9.094-1.092-0.046-0.387zM52.112 4.001l4.3-18.452c0.178-0.835 0.572-1.474 1.184-1.917 0.613-0.437 1.657-0.809 3.134-1.119v0l-0.04-0.398-8.726 0.876 0.04 0.398c1.319 0.062 2.237 0.191 2.752 0.387 0.508 0.19 0.789 0.547 0.841 1.071v0c0.036 0.358-0.01 0.872-0.136 1.541v0l-3.069 13.595-0.199 0.02-6.507-13.87c-0.291-0.627-0.446-1.037-0.465-1.23v0c-0.026-0.259 0.125-0.461 0.452-0.608 0.333-0.154 1.08-0.319 2.241-0.496v0l-0.04-0.398-9.402 0.943 0.04 0.398c1.107-0.051 1.894 0.041 2.359 0.276 0.472 0.234 0.892 0.708 1.258 1.421v0l9.008 17.659zM78.61-3.49l0.392-0.613 0.207 0.073-0.156 0.555c-0.513 1.78-1.372 3.193-2.579 4.24-1.213 1.047-2.714 1.642-4.502 1.786v0c-1.761 0.141-3.359-0.188-4.794-0.99-1.442-0.8-2.61-1.984-3.506-3.551-0.895-1.567-1.427-3.407-1.597-5.52v0c-0.17-2.12 0.083-4.043 0.761-5.769 0.685-1.72 1.738-3.096 3.16-4.126 1.422-1.037 3.093-1.633 5.013-1.787v0c2.279-0.183 4.085 0.354 5.416 1.612 1.324 1.251 2.106 3.162 2.347 5.73v0l-0.27 0.263-13.178 1.058c0.002 0.856 0.022 1.526 0.061 2.011v0c0.238 2.964 1.02 5.168 2.347 6.614 1.327 1.452 3.064 2.092 5.21 1.919v0c1.11-0.089 2.156-0.427 3.139-1.015 0.989-0.588 1.832-1.418 2.529-2.49zM70.514-18.611c-1.528 0.123-2.747 0.859-3.655 2.21-0.902 1.35-1.411 3.126-1.528 5.329v0l9.442-1.099c0.062-0.4 0.056-1.055-0.017-1.965v0c-0.141-1.754-0.572-2.964-1.295-3.628-0.722-0.664-1.705-0.947-2.947-0.847zM106.055-10.327l0.542 0.02-0.66 10.331-23.964 1.305-0.022-0.389 3.993-0.608-1.752-32.183-4.035-0.171-0.021-0.389 24.014-1.307 1.18 9.149-0.487 0.077-3.108-6.691c-0.334-0.736-0.68-1.208-1.039-1.416-0.352-0.215-0.921-0.3-1.706-0.258v0l-11.044 0.602 0.818 15.017 7.229-0.393c0.785-0.043 1.334-0.203 1.646-0.48 0.312-0.277 0.514-0.796 0.607-1.556v0l0.612-4.009 0.59-0.032 0.681 12.522-0.589 0.032-1.044-3.919c-0.174-0.738-0.431-1.228-0.772-1.471-0.341-0.249-0.904-0.351-1.689-0.308v0l-7.229 0.393 0.913 16.775 10.954-0.596c0.779-0.042 1.341-0.197 1.687-0.462 0.346-0.259 0.647-0.756 0.9-1.491v0zM119.3 0.151c1.24-0.031 2.382-0.369 3.425-1.016 1.044-0.646 1.928-1.565 2.653-2.756v0l0.151 0.036 0.082 3.329 0.29-0.007 5.278-2.572-0.006-0.25-2.704-0.523-0.803-32.26-0.399 0.01-5.631 2.05 0.008 0.34 2.916 1.008 0.281 11.307c-1.283-0.362-2.561-0.526-3.833-0.495v0c-2.019 0.05-3.81 0.568-5.373 1.554-1.562 0.993-2.752 2.356-3.569 4.09-0.824 1.734-1.208 3.695-1.155 5.88v0c0.05 1.993 0.444 3.77 1.183 5.333 0.739 1.569 1.743 2.794 3.013 3.676 1.262 0.882 2.66 1.304 4.193 1.266zM120.96-1.851c-1.986 0.049-3.563-0.735-4.73-2.353-1.167-1.625-1.786-3.857-1.857-6.696v0c-0.075-3.032 0.49-5.487 1.698-7.364 1.214-1.877 2.847-2.842 4.899-2.893v0c1.24-0.031 2.206 0.332 2.898 1.088 0.686 0.75 1.046 1.841 1.082 3.274v0l0.312 12.536c-0.402 0.73-0.984 1.308-1.748 1.734-0.756 0.426-1.608 0.65-2.554 0.674zM149.98-3.655l2.689 0.59 0 0.25-5.34 2.439-0.29 0 0.001-3.33-0.15-0.04c-1.927 2.413-4.001 3.619-6.222 3.618v0c-1.013 0-1.91-0.214-2.689-0.641-0.787-0.42-1.36-1.007-1.72-1.761v0c-0.227-0.427-0.373-1.007-0.439-1.74-0.066-0.733-0.099-2.013-0.099-3.84v0l0.004-12.49-2.94-0.391 0-0.4 6.13 0.002-0.004 13.28c0 1.307 0.029 2.26 0.089 2.86 0.066 0.607 0.2 1.12 0.4 1.54v0c0.227 0.527 0.61 0.944 1.149 1.251 0.54 0.314 1.15 0.47 1.83 0.47v0c0.82 0 1.603-0.203 2.35-0.609 0.753-0.413 1.44-1.01 2.061-1.789v0l0.005-16.21-2.94-0.391 0-0.4 6.13 0.002zM166.698 0.51c2.019 0.049 3.849-0.33 5.489-1.137 1.633-0.807 2.925-1.943 3.874-3.406 0.949-1.464 1.447-3.142 1.493-5.035v0c0.041-1.699-0.29-3.138-0.995-4.316-0.705-1.171-1.644-2.164-2.818-2.98-1.167-0.815-2.72-1.687-4.658-2.614v0c-2.161-1.066-3.83-1.971-5.005-2.713-1.175-0.749-2.084-1.621-2.727-2.617-0.649-0.996-0.956-2.211-0.921-3.644v0c0.049-1.993 0.69-3.554 1.924-4.684 1.241-1.13 2.872-1.67 4.891-1.621v0c3.366 0.082 5.824 1.826 7.375 5.231v0c0.773 1.679 1.392 3.618 1.859 5.817v0l0.493-0.128-0.229-10.689-0.63-0.015-1.237 2.321c-1.314-1.079-2.542-1.859-3.684-2.341-1.148-0.488-2.392-0.749-3.732-0.781v0c-1.926-0.047-3.659 0.311-5.198 1.073-1.532 0.763-2.749 1.844-3.65 3.242-0.901 1.398-1.373 2.997-1.417 4.797v0c-0.043 1.759 0.321 3.262 1.09 4.508 0.77 1.246 1.749 2.267 2.936 3.063 1.188 0.796 2.672 1.606 4.452 2.429v0c2.163 1 3.839 1.874 5.028 2.623 1.189 0.749 2.124 1.639 2.806 2.67 0.675 1.023 0.995 2.272 0.959 3.744v0c-0.051 2.086-0.754 3.726-2.111 4.92-1.35 1.194-3.197 1.763-5.543 1.705v0c-2.746-0.067-4.929-1.054-6.55-2.96v0c-0.791-0.933-1.424-2.025-1.901-3.278-0.476-1.252-0.931-2.994-1.363-5.224v0l-0.442 0.089 0.345 11.712 0.639 0.015 1.096-2.664c0.992 0.871 2.199 1.561 3.62 2.069 1.428 0.508 2.908 0.781 4.442 0.819zM187.119-25.013l-5.623 4.926 0.078 0.254 2.307 0.111-0.754 15.652c-0.049 1.012 0.025 1.833 0.222 2.463 0.197 0.63 0.562 1.155 1.095 1.575v0c0.791 0.625 1.709 0.963 2.755 1.013v0c1.006 0.048 1.972-0.199 2.899-0.741 0.927-0.543 1.658-1.308 2.193-2.297v0l-0.183-0.159c-0.621 0.557-1.181 0.954-1.679 1.19-0.506 0.243-1.018 0.351-1.538 0.327v0c-1.072-0.052-1.786-0.48-2.14-1.285v0c-0.333-0.57-0.472-1.428-0.417-2.573v0l0.721-14.962 5.284 0.254 0.327-0.775-5.573-0.268 0.224-4.645zM206.006-19.685c0.652 0.041 1.193 0.3 1.624 0.774 0.424 0.468 0.617 1.011 0.578 1.63v0c-0.033 0.519-0.241 0.947-0.623 1.283-0.382 0.336-0.833 0.488-1.351 0.456v0c-0.326-0.021-0.591-0.111-0.795-0.271-0.204-0.16-0.409-0.393-0.617-0.701v0c-0.21-0.274-0.4-0.483-0.571-0.627-0.171-0.144-0.387-0.225-0.646-0.242v0c-0.526-0.033-1.074 0.242-1.646 0.827-0.578 0.584-1.007 1.279-1.285 2.083v0l-0.948 14.91 3.877 0.637-0.024 0.389-10.07-0.64 0.025-0.389 3.009-0.2 1.088-17.115-2.816-1.251 0.022-0.35 5.65-1.554 0.389 0.025-0.273 4.301c2.005-2.752 3.806-4.077 5.403-3.975zM225.38-1.821l0.486-0.542 0.192 0.106-0.244 0.522c-0.793 1.674-1.869 2.931-3.228 3.769-1.366 0.838-2.943 1.184-4.73 1.038v0c-1.761-0.144-3.285-0.727-4.573-1.749-1.294-1.022-2.257-2.379-2.887-4.069-0.631-1.69-0.86-3.592-0.687-5.705v0c0.173-2.12 0.734-3.977 1.68-5.572 0.953-1.588 2.214-2.775 3.783-3.563 1.57-0.795 3.315-1.113 5.235-0.956v0c2.279 0.187 3.974 1.008 5.086 2.463 1.106 1.448 1.57 3.46 1.393 6.034v0l-0.309 0.215-13.176-1.078c-0.136 0.845-0.224 1.51-0.263 1.995v0c-0.243 2.963 0.174 5.265 1.251 6.905 1.076 1.647 2.687 2.558 4.833 2.733v0c1.11 0.091 2.197-0.074 3.261-0.495 1.071-0.421 2.037-1.104 2.897-2.051zM219.825-18.048c-1.528-0.125-2.849 0.406-3.963 1.592-1.107 1.187-1.896 2.858-2.367 5.014v0l9.496 0.436c0.125-0.384 0.225-1.032 0.3-1.942v0c0.144-1.754-0.088-3.017-0.694-3.789-0.606-0.772-1.53-1.209-2.772-1.311zM233.624 4.395c-1.233-0.129-2.203-0.666-2.909-1.611-0.706-0.939-0.988-2.091-0.845-3.456v0c0.17-1.624 1.042-2.847 2.616-3.668 1.581-0.82 4.178-1.4 7.793-1.739v0l0.464-4.436c0.197-1.883 0.121-3.211-0.227-3.985-0.341-0.78-1.032-1.224-2.073-1.333v0c-1.008-0.105-1.848 0.078-2.521 0.551-0.673 0.473-1.057 1.163-1.151 2.071v0l-0.088 1.318c-0.085 0.816-0.308 1.442-0.669 1.881-0.354 0.439-0.807 0.63-1.357 0.572v0c-0.491-0.051-0.872-0.255-1.142-0.612-0.278-0.357-0.389-0.795-0.336-1.312v0c0.082-0.782 0.552-1.598 1.412-2.447 0.859-0.842 1.924-1.508 3.195-1.998v0c1.544-0.663 3.095-0.913 4.654-0.75v0c0.908 0.095 1.662 0.355 2.261 0.779 0.592 0.424 1.001 0.976 1.224 1.656v0c0.121 0.442 0.173 0.973 0.155 1.595-0.018 0.621-0.119 1.807-0.301 3.558v0l-0.974 9.309c-0.122 1.167-0.09 1.981 0.097 2.443 0.18 0.461 0.561 0.722 1.144 0.784v0c0.875 0.092 1.557-0.149 2.047-0.721v0l0.188 0.12c-0.476 0.768-1.062 1.34-1.758 1.716-0.696 0.37-1.418 0.515-2.167 0.437v0c-0.842-0.088-1.512-0.413-2.01-0.974-0.504-0.562-0.742-1.267-0.714-2.116v0l-0.144-0.065c-0.848 0.863-1.787 1.509-2.816 1.938-1.024 0.436-2.04 0.601-3.048 0.495zM235.906 2.764c0.683 0.071 1.342-0.014 1.977-0.256 0.629-0.249 1.17-0.645 1.622-1.188v0l0.719-6.872c-1.735 0.248-3.086 0.535-4.052 0.863-0.972 0.321-1.681 0.756-2.127 1.306-0.452 0.543-0.724 1.251-0.816 2.127v0c-0.119 1.134 0.062 2.064 0.543 2.791 0.481 0.721 1.192 1.13 2.134 1.229zM274.19 8.335l2.962 0.788-0.051 0.387-9.13-1.216 0.052-0.387 3.015 0.008 1.649-12.38c0.168-1.262 0.26-2.205 0.276-2.828 0.016-0.623-0.031-1.158-0.139-1.603v0c-0.327-1.227-1.218-1.938-2.672-2.131v0c-1.553-0.207-2.959 0.329-4.219 1.607v0c-0.081 1.112-0.225 2.445-0.432 3.998v0l-1.649 12.38 2.952 0.787-0.052 0.386-9.169-1.221 0.052-0.387 3.055 0.014 1.649-12.381c0.168-1.262 0.263-2.205 0.286-2.827 0.016-0.623-0.031-1.158-0.14-1.602v0c-0.327-1.227-1.221-1.938-2.682-2.133v0c-1.52-0.202-2.883 0.288-4.09 1.473v0l-2.2 16.514 2.902 0.78-0.051 0.387-9.03-1.203 0.051-0.387 2.966 0.002 2.265-17-2.724-1.442 0.046-0.347 5.744-1.162 0.387 0.051-0.435 3.262c2.199-1.92 4.333-2.742 6.402-2.467v0c1.877 0.25 3.099 1.22 3.668 2.91v0c0.09 0.281 0.16 0.62 0.207 1.016v0c2.273-1.97 4.428-2.82 6.464-2.548v0c1.877 0.25 3.099 1.22 3.667 2.909v0c0.168 0.453 0.235 1.064 0.2 1.833-0.035 0.769-0.169 2.029-0.402 3.78v0z" opacity="1" transform="matrix(1,0,0,1,0,0)" fill="#473829" class="wordmark-text-0" data-fill-palette-color="primary" id="text-0"></path></svg></g></svg></g><g transform="matrix(1,0,0,1,73.121641344,43.48899468639472)"><svg viewBox="0 0 98.18807731199999 7.501689641184947" height="7.501689641184947" width="98.18807731199999"><g transform="matrix(1,0,0,1,0,0)"><svg width="98.18807731199999" viewBox="2.35 -37.35 619.04 47.3" height="7.501689641184947" data-palette-color="#473829"><path d="M15.35 0.3Q11.45 0.3 7.88-0.95 4.3-2.2 2.35-4.25L2.35-4.25 3.8-7.1Q5.7-5.2 8.85-4.03 12-2.85 15.35-2.85L15.35-2.85Q20.05-2.85 22.4-4.58 24.75-6.3 24.75-9.05L24.75-9.05Q24.75-11.15 23.48-12.4 22.2-13.65 20.35-14.33 18.5-15 15.2-15.8L15.2-15.8Q11.25-16.8 8.9-17.73 6.55-18.65 4.88-20.55 3.2-22.45 3.2-25.7L3.2-25.7Q3.2-28.35 4.6-30.53 6-32.7 8.9-34 11.8-35.3 16.1-35.3L16.1-35.3Q19.1-35.3 21.98-34.48 24.85-33.65 26.95-32.2L26.95-32.2 25.7-29.25Q23.5-30.7 21-31.43 18.5-32.15 16.1-32.15L16.1-32.15Q11.5-32.15 9.18-30.38 6.85-28.6 6.85-25.8L6.85-25.8Q6.85-23.7 8.13-22.43 9.4-21.15 11.33-20.48 13.25-19.8 16.5-19L16.5-19Q20.35-18.05 22.73-17.13 25.1-16.2 26.75-14.33 28.4-12.45 28.4-9.25L28.4-9.25Q28.4-6.6 26.98-4.42 25.55-2.25 22.6-0.98 19.65 0.3 15.35 0.3L15.35 0.3ZM48.3-4.15L49.55-1.6Q48.55-0.7 47.07-0.23 45.6 0.25 44 0.25L44 0.25Q40.3 0.25 38.3-1.75 36.3-3.75 36.3-7.4L36.3-7.4 36.3-23.3 31.6-23.3 31.6-26.3 36.3-26.3 36.3-32.05 39.85-32.05 39.85-26.3 47.85-26.3 47.85-23.3 39.85-23.3 39.85-7.6Q39.85-5.25 41.02-4.03 42.2-2.8 44.4-2.8L44.4-2.8Q45.5-2.8 46.52-3.15 47.55-3.5 48.3-4.15L48.3-4.15ZM59.4-21.15Q60.65-23.8 63.12-25.15 65.59-26.5 69.25-26.5L69.25-26.5 69.25-23.05 68.4-23.1Q64.25-23.1 61.9-20.55 59.55-18 59.55-13.4L59.55-13.4 59.55 0 56 0 56-26.3 59.4-26.3 59.4-21.15ZM98.34-13.15L98.29-12.05 76.29-12.05Q76.59-7.95 79.44-5.43 82.29-2.9 86.64-2.9L86.64-2.9Q89.09-2.9 91.14-3.78 93.19-4.65 94.69-6.35L94.69-6.35 96.69-4.05Q94.94-1.95 92.32-0.85 89.69 0.25 86.54 0.25L86.54 0.25Q82.49 0.25 79.37-1.48 76.24-3.2 74.49-6.25 72.74-9.3 72.74-13.15L72.74-13.15Q72.74-17 74.42-20.05 76.09-23.1 79.02-24.8 81.94-26.5 85.59-26.5L85.59-26.5Q89.24-26.5 92.14-24.8 95.04-23.1 96.69-20.08 98.34-17.05 98.34-13.15L98.34-13.15ZM85.59-23.45Q81.79-23.45 79.22-21.03 76.64-18.6 76.29-14.7L76.29-14.7 94.94-14.7Q94.59-18.6 92.02-21.03 89.44-23.45 85.59-23.45L85.59-23.45ZM114.04-26.5Q119.19-26.5 121.94-23.93 124.69-21.35 124.69-16.3L124.69-16.3 124.69 0 121.29 0 121.29-4.1Q120.09-2.05 117.77-0.9 115.44 0.25 112.24 0.25L112.24 0.25Q107.84 0.25 105.24-1.85 102.64-3.95 102.64-7.4L102.64-7.4Q102.64-10.75 105.06-12.8 107.49-14.85 112.79-14.85L112.79-14.85 121.14-14.85 121.14-16.45Q121.14-19.85 119.24-21.63 117.34-23.4 113.69-23.4L113.69-23.4Q111.19-23.4 108.89-22.58 106.59-21.75 104.94-20.3L104.94-20.3 103.34-22.95Q105.34-24.65 108.14-25.58 110.94-26.5 114.04-26.5L114.04-26.5ZM112.79-2.55Q115.79-2.55 117.94-3.93 120.09-5.3 121.14-7.9L121.14-7.9 121.14-12.2 112.89-12.2Q106.14-12.2 106.14-7.5L106.14-7.5Q106.14-5.2 107.89-3.88 109.64-2.55 112.79-2.55L112.79-2.55ZM167.14-26.5Q172.09-26.5 174.91-23.65 177.74-20.8 177.74-15.25L177.74-15.25 177.74 0 174.19 0 174.19-14.9Q174.19-19 172.21-21.15 170.24-23.3 166.64-23.3L166.64-23.3Q162.54-23.3 160.19-20.78 157.84-18.25 157.84-13.8L157.84-13.8 157.84 0 154.29 0 154.29-14.9Q154.29-19 152.31-21.15 150.34-23.3 146.69-23.3L146.69-23.3Q142.64-23.3 140.26-20.78 137.89-18.25 137.89-13.8L137.89-13.8 137.89 0 134.34 0 134.34-26.3 137.74-26.3 137.74-21.5Q139.14-23.9 141.64-25.2 144.14-26.5 147.39-26.5L147.39-26.5Q150.69-26.5 153.11-25.1 155.54-23.7 156.74-20.95L156.74-20.95Q158.19-23.55 160.91-25.03 163.64-26.5 167.14-26.5L167.14-26.5ZM187.38 0L187.38-26.3 190.94-26.3 190.94 0 187.38 0ZM189.19-32.05Q188.09-32.05 187.34-32.8 186.59-33.55 186.59-34.6L186.59-34.6Q186.59-35.6 187.34-36.35 188.09-37.1 189.19-37.1L189.19-37.1Q190.28-37.1 191.03-36.38 191.78-35.65 191.78-34.65L191.78-34.65Q191.78-33.55 191.03-32.8 190.28-32.05 189.19-32.05L189.19-32.05ZM214.23-26.5Q219.18-26.5 222.11-23.63 225.03-20.75 225.03-15.25L225.03-15.25 225.03 0 221.48 0 221.48-14.9Q221.48-19 219.43-21.15 217.38-23.3 213.58-23.3L213.58-23.3Q209.33-23.3 206.86-20.78 204.38-18.25 204.38-13.8L204.38-13.8 204.38 0 200.83 0 200.83-26.3 204.23-26.3 204.23-21.45Q205.68-23.85 208.26-25.18 210.83-26.5 214.23-26.5L214.23-26.5ZM255.73-26.3L259.13-26.3 259.13-3.2Q259.13 3.5 255.85 6.73 252.58 9.95 245.98 9.95L245.98 9.95Q242.33 9.95 239.05 8.88 235.78 7.8 233.73 5.9L233.73 5.9 235.53 3.2Q237.43 4.9 240.15 5.85 242.88 6.8 245.88 6.8L245.88 6.8Q250.88 6.8 253.23 4.48 255.58 2.15 255.58-2.75L255.58-2.75 255.58-6.1Q253.93-3.6 251.25-2.3 248.58-1 245.33-1L245.33-1Q241.63-1 238.6-2.63 235.58-4.25 233.85-7.18 232.13-10.1 232.13-13.8L232.13-13.8Q232.13-17.5 233.85-20.4 235.58-23.3 238.58-24.9 241.58-26.5 245.33-26.5L245.33-26.5Q248.68-26.5 251.38-25.15 254.08-23.8 255.73-21.25L255.73-21.25 255.73-26.3ZM245.68-4.15Q248.53-4.15 250.83-5.38 253.13-6.6 254.4-8.8 255.68-11 255.68-13.8L255.68-13.8Q255.68-16.6 254.4-18.78 253.13-20.95 250.85-22.18 248.58-23.4 245.68-23.4L245.68-23.4Q242.83-23.4 240.55-22.2 238.28-21 237-18.8 235.73-16.6 235.73-13.8L235.73-13.8Q235.73-11 237-8.8 238.28-6.6 240.55-5.38 242.83-4.15 245.68-4.15L245.68-4.15ZM290.88-34.35Q288.58-34.35 287.4-33.1 286.23-31.85 286.23-29.4L286.23-29.4 286.23-26.3 294.33-26.3 294.33-23.3 286.33-23.3 286.33 0 282.78 0 282.78-23.3 278.08-23.3 278.08-26.3 282.78-26.3 282.78-29.55Q282.78-33.15 284.85-35.25 286.93-37.35 290.73-37.35L290.73-37.35Q292.23-37.35 293.63-36.93 295.03-36.5 295.98-35.7L295.98-35.7 294.78-33.05Q293.23-34.35 290.88-34.35L290.88-34.35ZM309.42 0.25Q305.62 0.25 302.57-1.48 299.52-3.2 297.77-6.25 296.02-9.3 296.02-13.15L296.02-13.15Q296.02-17 297.77-20.05 299.52-23.1 302.57-24.8 305.62-26.5 309.42-26.5L309.42-26.5Q313.22-26.5 316.27-24.8 319.32-23.1 321.05-20.05 322.77-17 322.77-13.15L322.77-13.15Q322.77-9.3 321.05-6.25 319.32-3.2 316.27-1.48 313.22 0.25 309.42 0.25L309.42 0.25ZM309.42-2.9Q312.22-2.9 314.45-4.17 316.67-5.45 317.92-7.8 319.17-10.15 319.17-13.15L319.17-13.15Q319.17-16.15 317.92-18.5 316.67-20.85 314.45-22.13 312.22-23.4 309.42-23.4L309.42-23.4Q306.62-23.4 304.4-22.13 302.17-20.85 300.9-18.5 299.62-16.15 299.62-13.15L299.62-13.15Q299.62-10.15 300.9-7.8 302.17-5.45 304.4-4.17 306.62-2.9 309.42-2.9L309.42-2.9ZM333.42-21.15Q334.67-23.8 337.15-25.15 339.62-26.5 343.27-26.5L343.27-26.5 343.27-23.05 342.42-23.1Q338.27-23.1 335.92-20.55 333.57-18 333.57-13.4L333.57-13.4 333.57 0 330.02 0 330.02-26.3 333.42-26.3 333.42-21.15ZM375.77-4.15L377.02-1.6Q376.02-0.7 374.54-0.23 373.07 0.25 371.47 0.25L371.47 0.25Q367.77 0.25 365.77-1.75 363.77-3.75 363.77-7.4L363.77-7.4 363.77-23.3 359.07-23.3 359.07-26.3 363.77-26.3 363.77-32.05 367.32-32.05 367.32-26.3 375.32-26.3 375.32-23.3 367.32-23.3 367.32-7.6Q367.32-5.25 368.49-4.03 369.67-2.8 371.87-2.8L371.87-2.8Q372.97-2.8 373.99-3.15 375.02-3.5 375.77-4.15L375.77-4.15ZM396.86-26.5Q401.81-26.5 404.74-23.63 407.66-20.75 407.66-15.25L407.66-15.25 407.66 0 404.11 0 404.11-14.9Q404.11-19 402.06-21.15 400.01-23.3 396.21-23.3L396.21-23.3Q391.96-23.3 389.49-20.78 387.01-18.25 387.01-13.8L387.01-13.8 387.01 0 383.46 0 383.46-37.1 387.01-37.1 387.01-21.7Q388.46-24 391.01-25.25 393.56-26.5 396.86-26.5L396.86-26.5ZM440.36-13.15L440.31-12.05 418.31-12.05Q418.61-7.95 421.46-5.43 424.31-2.9 428.66-2.9L428.66-2.9Q431.11-2.9 433.16-3.78 435.21-4.65 436.71-6.35L436.71-6.35 438.71-4.05Q436.96-1.95 434.34-0.85 431.71 0.25 428.56 0.25L428.56 0.25Q424.51 0.25 421.39-1.48 418.26-3.2 416.51-6.25 414.76-9.3 414.76-13.15L414.76-13.15Q414.76-17 416.44-20.05 418.11-23.1 421.04-24.8 423.96-26.5 427.61-26.5L427.61-26.5Q431.26-26.5 434.16-24.8 437.06-23.1 438.71-20.08 440.36-17.05 440.36-13.15L440.36-13.15ZM427.61-23.45Q423.81-23.45 421.24-21.03 418.66-18.6 418.31-14.7L418.31-14.7 436.96-14.7Q436.61-18.6 434.04-21.03 431.46-23.45 427.61-23.45L427.61-23.45ZM485.46-31.8L465.16-31.8 465.16-18.05 483.26-18.05 483.26-14.85 465.16-14.85 465.16 0 461.46 0 461.46-35 485.46-35 485.46-31.8ZM511.6-26.3L515.15-26.3 515.15 0 511.75 0 511.75-4.8Q510.35-2.4 507.9-1.07 505.45 0.25 502.3 0.25L502.3 0.25Q497.15 0.25 494.18-2.63 491.2-5.5 491.2-11.05L491.2-11.05 491.2-26.3 494.75-26.3 494.75-11.4Q494.75-7.25 496.8-5.1 498.85-2.95 502.65-2.95L502.65-2.95Q506.8-2.95 509.2-5.48 511.6-8 511.6-12.5L511.6-12.5 511.6-26.3ZM537.7-4.15L538.95-1.6Q537.95-0.7 536.48-0.23 535 0.25 533.4 0.25L533.4 0.25Q529.7 0.25 527.7-1.75 525.7-3.75 525.7-7.4L525.7-7.4 525.7-23.3 521-23.3 521-26.3 525.7-26.3 525.7-32.05 529.25-32.05 529.25-26.3 537.25-26.3 537.25-23.3 529.25-23.3 529.25-7.6Q529.25-5.25 530.43-4.03 531.6-2.8 533.8-2.8L533.8-2.8Q534.9-2.8 535.93-3.15 536.95-3.5 537.7-4.15L537.7-4.15ZM565.55-26.3L569.1-26.3 569.1 0 565.7 0 565.7-4.8Q564.3-2.4 561.85-1.07 559.4 0.25 556.25 0.25L556.25 0.25Q551.1 0.25 548.12-2.63 545.15-5.5 545.15-11.05L545.15-11.05 545.15-26.3 548.7-26.3 548.7-11.4Q548.7-7.25 550.75-5.1 552.8-2.95 556.6-2.95L556.6-2.95Q560.75-2.95 563.15-5.48 565.55-8 565.55-12.5L565.55-12.5 565.55-26.3ZM582.44-21.15Q583.69-23.8 586.17-25.15 588.64-26.5 592.29-26.5L592.29-26.5 592.29-23.05 591.44-23.1Q587.29-23.1 584.94-20.55 582.59-18 582.59-13.4L582.59-13.4 582.59 0 579.04 0 579.04-26.3 582.44-26.3 582.44-21.15ZM621.39-13.15L621.34-12.05 599.34-12.05Q599.64-7.95 602.49-5.43 605.34-2.9 609.69-2.9L609.69-2.9Q612.14-2.9 614.19-3.78 616.24-4.65 617.74-6.35L617.74-6.35 619.74-4.05Q617.99-1.95 615.37-0.85 612.74 0.25 609.59 0.25L609.59 0.25Q605.54 0.25 602.42-1.48 599.29-3.2 597.54-6.25 595.79-9.3 595.79-13.15L595.79-13.15Q595.79-17 597.47-20.05 599.14-23.1 602.07-24.8 604.99-26.5 608.64-26.5L608.64-26.5Q612.29-26.5 615.19-24.8 618.09-23.1 619.74-20.08 621.39-17.05 621.39-13.15L621.39-13.15ZM608.64-23.45Q604.84-23.45 602.27-21.03 599.69-18.6 599.34-14.7L599.34-14.7 617.99-14.7Q617.64-18.6 615.07-21.03 612.49-23.45 608.64-23.45L608.64-23.45Z" opacity="1" transform="matrix(1,0,0,1,0,0)" fill="#473829" class="slogan-text-1" data-fill-palette-color="secondary" id="text-1"></path></svg></g></svg></g></svg></g></svg></g><g transform="matrix(1,0,0,1,80.9527489058791,0)"><svg viewBox="0 0 82.52586218824179 82.50292724202389" height="82.50292724202389" width="82.52586218824179"><g><svg xmlns="http://www.w3.org/2000/svg" xmlns:xlink="http://www.w3.org/1999/xlink" version="1.1" x="0" y="0" viewBox="25.1 25.100000000000005 49.813843876330616 49.80000000000001" style="enable-background:new 0 0 100 100;" xml:space="preserve" height="82.50292724202389" width="82.52586218824179" class="icon-icon-0" data-fill-palette-color="accent" id="icon-0"><path d="M74.7 51.3l-4.5-4.5 2.6-2.6c0.4-0.4 0.4-0.9 0-1.3L59.2 29.3C59 29.1 58.8 29 58.5 29h-4c-0.2 0-0.5 0.1-0.6 0.3l-0.6 0.6-4.5-4.5c-0.4-0.4-0.9-0.4-1.3 0L43.7 29c-0.4 0.4-0.4 0.9 0 1.3l4.5 4.5L47.1 36l-4.5-4.5c-0.4-0.4-0.9-0.4-1.3 0l-3.7 3.7c-0.4 0.4-0.4 0.9 0 1.3l4.5 4.5L41 42.1l-4.5-4.5c-0.4-0.4-0.9-0.4-1.3 0l-3.7 3.7c-0.4 0.4-0.4 0.9 0 1.3l4.5 4.5-1.1 1.1-4.5-4.5c-0.4-0.4-0.9-0.4-1.3 0l-3.7 3.7c-0.4 0.4-0.4 0.9 0 1.3l4.5 4.5-2.6 2.6c-0.4 0.4-0.4 0.9 0 1.3l15.6 15.6c0.4 0.4 0.9 0.4 1.3 0l2.6-2.6 4.5 4.5c0.4 0.4 0.9 0.4 1.3 0l3.7-3.7c0.4-0.4 0.4-0.9 0-1.3l-4.5-4.5 1.1-1.1 4.5 4.5c0.4 0.4 0.9 0.4 1.3 0l3.7-3.7c0.4-0.4 0.4-0.9 0-1.3L57.9 59l1.1-1.1 4.5 4.5c0.4 0.4 0.9 0.4 1.3 0l3.7-3.7c0.4-0.4 0.4-0.9 0-1.3L64 52.9l1.1-1.1 4.5 4.5c0.4 0.4 0.9 0.4 1.3 0l3.7-3.7C75 52.2 75 51.7 74.7 51.3zM45.7 29.7l2.4-2.4 3.9 3.9-2.4 2.4L45.7 29.7zM39.5 35.8l2.4-2.4 3.9 3.9-2.4 2.4L39.5 35.8zM33.4 41.9l2.4-2.4 3.9 3.9-2.4 2.4L33.4 41.9zM27.3 48.1l2.4-2.4 3.9 3.9-2.4 2.4L27.3 48.1zM54.3 70.3l-2.4 2.4-3.9-3.9 2.4-2.4L54.3 70.3zM60.5 64.2l-2.4 2.4-3.9-3.9 2.4-2.4L60.5 64.2zM66.6 58.1l-2.4 2.4-3.9-3.9 2.4-2.4L66.6 58.1zM43.5 70.8L29.2 56.5l25.6-25.6h3.3l12.6 12.6L43.5 70.8zM70.3 54.3l-3.9-3.9 2.4-2.4 3.9 3.9L70.3 54.3zM58.9 35.1c-1.3-1.3-3.4-1.3-4.8 0-1.3 1.3-1.3 3.4 0 4.8 1.3 1.3 3.4 1.3 4.8 0C60.2 38.5 60.2 36.4 58.9 35.1zM57.6 38.5c-0.6 0.6-1.6 0.6-2.2 0-0.6-0.6-0.6-1.6 0-2.2 0.6-0.6 1.6-0.6 2.2 0C58.2 37 58.2 37.9 57.6 38.5z" fill="#996a52" data-fill-palette-color="accent"></path></svg></g></svg></g><g></g></svg></g></svg></g><path d="M0 45.003L0 1 244.431 1 244.431 45.003 243.196 45.003 243.196 2.235 1.235 2.235 1.235 45.003 0 45.003M0 202.197L0 246.2 244.431 246.2 244.431 202.197 243.196 202.197 243.196 244.965 1.235 244.965 1.235 202.197 0 202.197" fill="#473829" stroke="transparent" data-fill-palette-color="tertiary"></path></svg></g><defs></defs></svg><rect width="244.43135999999998" height="247.2" fill="none" stroke="none" visibility="hidden"></rect></g></svg></g></svg>